<svg width="156" height="132" viewBox="0 0 156 132" fill="none" xmlns="http://www.w3.org/2000/svg">
<path d="M113.718 34.9235C102.241 34.9226 91.0368 38.3674 81.6017 44.7979C72.1667 51.2283 64.9501 60.3383 60.9159 70.9111L74.1219 75.7858C77.61 66.6703 84.237 59.0475 92.8487 54.2446C101.46 49.4418 111.511 47.7631 121.251 49.5011C130.991 51.2391 139.803 56.2835 146.153 63.7559C152.502 71.2284 155.987 80.6556 156 90.3958C156 101.43 151.545 112.012 143.616 119.814C135.687 127.617 124.932 132 113.718 132H43.2493C33.2655 132.006 23.6014 128.536 15.9685 122.203C8.33556 115.871 3.22615 107.085 1.545 97.4014C-0.136147 87.7177 1.71943 77.7611 6.78316 69.2945C11.8469 60.8279 19.7921 54.3976 29.2119 51.1422C28.6083 39.1645 32.5324 27.3909 40.2277 18.0913C47.9231 8.79165 58.8447 2.62442 70.8872 0.778555C82.9296 -1.06731 95.2402 1.53887 105.446 8.09468C115.651 14.6505 123.029 24.6917 126.156 36.2826C122.074 35.3783 117.903 34.9225 113.718 34.9235Z" fill="#86C5FF"/>
</svg>
